<?xml version="1.0" encoding="utf-8" ?>
<svg xmlns="http://www.w3.org/2000/svg" xmlns:xlink="http://www.w3.org/1999/xlink" width="614" height="1024">
	<clipPath id="cl_3">
		<rect x="-4.5776367e-05" width="614.00006" height="1024"/>
	</clipPath>
	<g clip-path="url(#cl_3)">
		<path fill="#002C31" transform="matrix(1.9987 0 0 2 -204.667 0)" d="M220.654 109.061C222.359 91.706 234.827 78.1533 252.401 76.0949C273.646 74.0767 288.424 88.6005 291.328 109.061C297.869 109.336 304.501 109.034 311.054 109.051C327.579 109.094 323.291 113.566 323.238 129.257L353.842 129.249C370.443 129.251 386.455 128.164 386.775 150.048C387.076 170.692 386.789 191.386 386.789 212.035L386.801 410.382C386.794 434.228 378.993 435.422 359.22 435.391L259.938 435.37L153.718 435.388C136.877 435.408 125.362 433.877 125.262 413.574L125.261 155.711C125.154 128.445 134.443 129.233 156.025 129.246L188.753 129.257C188.745 110.08 185.392 109.02 203.682 109.037L220.654 109.061ZM254.941 85.6101C228.052 87.2697 232.599 113.025 228.285 117.518C226.065 119.831 218.264 118.803 215.355 118.799L198.593 118.775L198.593 148.096L257.033 148.096L313.448 148.096L313.448 118.775L296.127 118.8C278.717 118.816 284.427 119.09 280.749 104.752C277.652 92.6776 267.153 85.5007 254.941 85.6101ZM142.972 138.809C131.426 141.678 135.005 156.738 135.009 166.557L135.003 395.862C134.998 408.994 130.121 425.977 146.818 426.203C164.731 426.446 182.679 426.218 200.595 426.216L346.114 426.221C357.242 426.221 377.531 430.99 377.265 415.562L377.273 156.905C377.275 136.582 374.491 138.793 357.339 138.802L330.871 138.822C328.328 138.826 325.78 138.875 323.238 138.809C323.388 162.439 323.465 157.758 299.507 157.763L220.853 157.764C216.568 157.763 193.035 159.026 190.454 156.328C187.851 153.608 188.742 142.706 188.753 138.809L157.637 138.795C152.841 138.793 147.72 138.394 142.972 138.809Z"/>
		<path fill="#002C31" transform="matrix(1.9987 0 0 2 -204.667 0)" d="M257.033 122.461C238.092 122.771 235.68 96.7163 254.941 93.3191C273.302 92.0925 276.118 120.315 257.033 122.461ZM254.941 103.524C249.765 106.338 250.165 113.073 257.033 112.778C262.626 110.652 261.305 103.13 254.941 103.524Z"/>
		<path fill="#002C31" transform="matrix(1.9987 0 0 2 -204.667 0)" d="M239.458 279.926C234.934 279.646 232.548 276.863 234.514 272.563C240.813 258.79 248.716 245.536 255.734 232.114L267.005 210.505C269.061 206.625 270.627 200.907 275.066 199.28C285.77 199.585 276.998 211.902 274.863 215.973L251.778 260.096C249.794 263.907 243.548 278.873 239.458 279.926Z"/>
		<path fill="#002C31" transform="matrix(1.9987 0 0 2 -204.667 0)" d="M215.422 270.384L214.749 270.923C213.27 269.944 211.864 268.112 210.598 266.846L189.574 246.58C176.684 234.261 183.06 234.414 194.978 222.475L206.811 210.707C209.54 208.024 212.195 205.041 215.422 202.962C217.571 205.335 219.876 207.485 221.897 209.984C216.313 213.55 198.317 232.354 193.838 237.51C202.887 246.961 213.24 255.274 221.897 265.122C219.313 266.538 217.486 268.329 215.422 270.384Z"/>
		<path fill="#002C31" transform="matrix(1.9987 0 0 2 -204.667 0)" d="M293.599 209.984C295.597 207.788 297.636 205.652 299.922 203.752C303.47 206.381 306.832 210.518 310.046 213.641C318.039 221.405 326.757 229.05 334.028 237.51C330.4 240.94 327.005 244.581 323.479 248.113L310.009 261.385C306.675 264.72 303.417 268.159 299.922 271.325L299.621 271.469C298.303 271.097 293.967 266.325 292.727 265.122C301.833 255.769 311.347 246.789 320.537 237.51C312.177 228.267 301.239 219.264 293.599 209.984Z"/>
		<path fill="#002C31" transform="matrix(1.9987 0 0 2 -204.667 0)" d="M195.141 317.35C191.297 317.336 179.98 318.283 177.349 316.129C173.433 312.922 176.676 308.262 182.319 308.104C186.419 308.125 197.109 307.045 199.979 309.41C203.331 312.173 201.001 317.284 195.141 317.35Z"/>
		<path fill="#002C31" transform="matrix(1.9987 0 0 2 -204.667 0)" d="M330.784 317.35C326.292 317.698 321.507 317.364 316.989 317.357L238.42 317.345C234.954 317.341 217.259 318.304 215.048 316.764C210.752 313.771 212.941 308.608 217.579 308.104C222.951 307.769 228.537 308.102 233.938 308.105L308.731 308.113C313.403 308.117 334.272 305.841 335.122 311.851C335.567 314.997 333.677 316.887 330.784 317.35Z"/>
		<path fill="#002C31" transform="matrix(1.9987 0 0 2 -204.667 0)" d="M196.185 346.698C192.357 346.704 183.825 347.214 180.374 346.658C174.625 345.732 173.446 337.738 181.61 337.334C185.902 337.313 207.209 335.145 199.938 345.003C198.933 346.365 197.768 346.49 196.185 346.698Z"/>
		<path fill="#002C31" transform="matrix(1.9987 0 0 2 -204.667 0)" d="M331.609 346.698L233.56 346.712C229.545 346.721 218.94 347.692 215.54 346.129C211.019 344.05 212.487 338.513 216.726 337.334C224.142 337.093 231.648 337.324 239.072 337.326L311.788 337.319C315.938 337.314 328.71 336.7 332.205 337.81C337.043 339.346 335.581 345.164 331.609 346.698Z"/>
		<path fill="#002C31" transform="matrix(1.9987 0 0 2 -204.667 0)" d="M196.185 376.184C191.834 376.202 180.555 377.185 177.314 374.605C173.746 371.764 176.076 367.071 181.61 366.678C186.399 366.368 200.544 365.1 201.302 370.407C201.771 373.687 199.106 375.734 196.185 376.184Z"/>
		<path fill="#002C31" transform="matrix(1.9987 0 0 2 -204.667 0)" d="M264.062 376.184L231.725 376.185C227.445 376.186 221.363 376.634 217.302 376.102C211.036 375.282 211.333 367.217 217.579 366.678C229.474 366.121 251.024 365.743 262.785 366.735C269.726 367.32 270.86 375.242 264.062 376.184Z"/>
	</g>
</svg>
