<?xml version="1.0" encoding="utf-8" ?>
<svg xmlns="http://www.w3.org/2000/svg" xmlns:xlink="http://www.w3.org/1999/xlink" width="462" height="693">
	<clipPath id="cl_3">
		<rect x="0.00012207031" y="3.0517578e-05" width="462" height="693"/>
	</clipPath>
	<g clip-path="url(#cl_3)">
		<path transform="matrix(1.35352 0 0 1.35352 -115.5 3.05176e-05)" d="M253.533 63.5833C270.33 62.1613 287.138 76.1711 285.063 93.7505L306.812 93.7334C329.513 93.7215 325.04 97.2244 324.977 118.329L359.076 118.315C378.273 118.291 390.466 116.194 390.435 141.239L390.433 413.846C390.526 436.802 381.597 438.057 363.125 438.028L260.187 438.01L149.232 438.019C144.459 438.017 139.175 438.382 134.462 437.593C118.958 435.001 122.203 414.343 122.2 403.099L122.193 147.704C122.175 118.684 126.055 118.327 152.062 118.317L175.512 118.33C179.589 118.338 183.678 118.492 187.752 118.329C187.785 113.545 186.269 99.217 189.679 95.9005C193.371 92.3109 199.955 93.7323 204.576 93.7421L227.776 93.7505C227.648 77.88 237.234 65.2937 253.533 63.5833ZM324.977 132.693C324.758 137.8 326.553 150.051 322.099 153.325C319.257 155.415 295.325 154.26 290.791 154.259L209.702 154.266C186.229 154.272 187.869 157.087 187.752 132.693L136.321 132.693L136.323 410.878C136.324 417.173 133.912 423.655 140.423 423.839C147.872 424.049 155.365 423.874 162.82 423.87L316.919 423.866C335.722 423.865 354.553 423.649 373.353 423.867C378.528 420.082 376.213 408.92 376.251 402.743L376.25 145.554C376.25 142.256 377.307 136.269 375.458 133.386C371.213 132.02 358.868 132.683 353.686 132.682L324.977 132.693ZM255.684 77.8319C232.915 81.3434 249.674 105.396 236.688 107.814C230.194 109.023 209.414 108.296 202.25 108.08L202.25 140.226L257.625 140.226L310.647 140.226C311.012 129.556 310.639 118.765 310.647 108.08C302.519 108.255 283.638 109.054 276.074 107.861C265.915 106.258 274.662 89.7985 266.908 82.0231C264.072 79.1795 259.726 77.3611 255.684 77.8319Z"/>
		<path transform="matrix(1.35352 0 0 1.35352 -115.5 3.05176e-05)" d="M266.756 202.754C271.01 202.185 274.498 204.928 274.81 209.223C275.054 212.572 257.716 248.443 255.545 253.073C252.851 258.816 252.284 263.552 246.241 266.496C242.479 266.608 239.023 264.338 238.179 260.62C237.264 256.592 241.13 250.687 242.714 247.158L258.886 211.499C260.877 207.139 261.54 203.745 266.756 202.754Z"/>
		<path transform="matrix(1.35352 0 0 1.35352 -115.5 3.05176e-05)" d="M299.538 202.754C305.958 202.548 310.021 209.245 314.137 213.36C319.546 218.768 325.44 224.076 330.334 229.947C336.62 237.487 323.972 246.109 319.182 250.933C314.518 255.631 309.694 261.256 304.502 265.301C301.74 266.735 298.564 266.669 296.226 264.38C288.421 256.738 301.85 247.747 306.657 243.093C309.528 240.314 312.238 237.387 315.125 234.623C309.779 227.937 282.043 208.976 299.538 202.754Z"/>
		<path transform="matrix(1.35352 0 0 1.35352 -115.5 3.05176e-05)" d="M210.159 202.754C215.596 202.351 220.393 208.43 217.08 213.382C213.893 218.145 201.14 229.281 195.995 234.623C200.219 238.835 204.459 243.001 208.792 247.103C212.866 250.96 222.262 257.215 216.451 263.653C214.645 265.653 212.783 266.325 210.159 266.496C205.685 265.837 184.689 244.367 180.752 239.919C178.778 237.688 178.104 234.605 179.513 231.852C180.76 229.415 205.19 204.239 210.159 202.754Z"/>
		<path transform="matrix(1.35352 0 0 1.35352 -115.5 3.05176e-05)" d="M195.995 333.751L274.603 333.729C278.91 333.719 285.799 332.668 289.335 335.77C292.371 338.433 292.545 343.17 289.743 346.067C286.119 349.813 279.621 348.947 274.875 348.953L196.88 348.962C192.614 348.962 185.178 350.083 181.64 347.098C178.387 344.355 178.056 339.156 180.975 336.064C183.832 333.037 191.915 333.867 195.995 333.751Z"/>
		<path transform="matrix(1.35352 0 0 1.35352 -115.5 3.05176e-05)" d="M185.464 301.742C192.817 301.337 200.394 301.741 207.775 301.742L303.026 301.744C310.151 301.757 317.483 301.361 324.583 301.717C334.686 302.223 336.449 314.545 326.674 316.277C320.893 316.73 314.798 316.282 308.975 316.278L217.425 316.283C207.771 316.287 198.003 316.59 188.36 316.236C182.996 316.038 180.162 314.31 178.617 308.902C179.57 304.733 180.923 302.405 185.464 301.742Z"/>
		<path transform="matrix(1.35352 0 0 1.35352 -115.5 3.05176e-05)" d="M185.464 366.253L306.903 366.244C311.93 366.24 325.765 364.969 329.891 367.896C335.644 371.977 333.688 379.885 326.674 380.999C323.185 381.505 317.26 381.018 313.474 381.012L219.945 380.996C209.556 380.998 199.067 381.318 188.691 380.992C177.185 380.63 174.741 368.802 185.464 366.253Z"/>
	</g>
</svg>
